<svg xmlns="http://www.w3.org/2000/svg" viewBox="0 0 64 64">
  <circle cx="32" cy="32" r="32" fill="#F8BBD0"/>
  
  <g stroke="#4E342E" stroke-width="4" stroke-linecap="round" stroke-linejoin="round" fill="none">
    <path d="M50 52v-16a4 4 0 0 0-4-4H18a4 4 0 0 0-4 4v16"/>
    <path d="M10 42s1-2 4-2 5 4 8 4 5-4 8-4 5 4 8 4 4-2 4-2"/>
    <path d="M6 52h52"/>
    <path d="M20 26v6"/>
    <path d="M32 26v6"/>
    <path d="M44 26v6"/>
    <circle cx="20" cy="18" r="2" fill="#4E342E"/>
    <circle cx="32" cy="18" r="2" fill="#4E342E"/>
    <circle cx="44" cy="18" r="2" fill="#4E342E"/>
  </g>
</svg>
